<?xml version="1.0" encoding="utf-8"?>
<!-- Generator: Adobe Illustrator 23.0.2, SVG Export Plug-In . SVG Version: 6.00 Build 0)  -->
<svg version="1.1" id="Layer_1" xmlns="http://www.w3.org/2000/svg" xmlns:xlink="http://www.w3.org/1999/xlink" x="0px" y="0px"
	 viewBox="0 0 1624 500" style="enable-background:new 0 0 1624 500;" xml:space="preserve">
<style type="text/css">
	.st0{fill-rule:evenodd;clip-rule:evenodd;fill:#D92128;}
	.st1{fill-rule:evenodd;clip-rule:evenodd;fill:#FFFFFF;}
	.st2{fill-rule:evenodd;clip-rule:evenodd;fill:#474646;}
</style>
<title>Sterling Copy</title>
<desc>Created with Sketch.</desc>
<g id="Group" transform="translate(0.138198, 0.000000)">
	<path id="Fill-1" class="st0" d="M250,0c138.1,0,250,111.9,250,250S388.1,500,250,500C111.9,500,0,388.1,0,250S111.9,0,250,0z"/>
	<path id="Fill-2" class="st1" d="M333.3,78.1c40.1,0,72.6,32.5,72.6,72.6c0,40.1-32.5,72.6-72.6,72.6c-40.1,0-72.6-32.5-72.6-72.6
		C260.7,110.6,293.2,78.1,333.3,78.1"/>
</g>
<path id="Fill-3" class="st2" d="M717.5,384.4c0-27.5-18.3-47-55.7-54.8c-38.3-8.1-47.9-15.6-47.9-27.8c0-15.9,11.7-26.3,43.4-26.3
	c22.4,0,40.7,6.6,53.3,20.1h1.2v-18.9c0-17.1-13.8-37.4-61.7-37.4c-48.2,0-76.9,32.3-76.9,66.5c0,27.8,19.8,45.2,54.5,52.7
	c43.4,9.3,48.8,15.6,48.8,29.6c0,16.5-9.9,26.9-40.7,26.9c-24.8,0-43.4-9.9-57.2-22.2h-0.9v18.3c0,24.2,21.3,40.4,62.6,40.4
	C690,451.5,717.5,424.9,717.5,384.4z M744.5,292.8v97c0,37.7,19.8,59.9,60.5,59.9c23.3,0,35.3-10.5,35.3-26.9v-14.4h-1.5
	c-6.3,3.9-16.2,5.7-29,5.7c-16.2,0-25.4-8.1-25.4-29v-63.2h32c16.5,0,23.9-10.8,23.9-19.2v-16.5h-56v-36.5h-9.3
	c-6.3,0-13.5,4.8-18.9,11.1C747.5,271,744.5,277,744.5,292.8z M993,345.2c0-38.6-31.1-62.6-64.7-62.6c-46.1,0-79,33.8-79,87.7
	c0,49.4,39.2,81.1,79.3,81.1c44.3,0,58.4-15.9,58.4-36.5v-12.6h-1.5c-12.9,12-32.6,15.3-49.4,15.3c-23.6,0-42.2-12.9-45.2-33.2h26.3
	C970.6,384.4,993,374.9,993,345.2z M955.3,340.4c0,11.4-8.7,15.6-46.7,15.6h-18l0.3-5.4c0.9-18.6,14.4-34.4,33.8-34.4
	C943.3,316.2,955.3,324.3,955.3,340.4z M1109.5,325.5v-14.4c0-12.3-8.7-26.3-33.5-26.3c-42.5,0-59.6,30.8-59.6,63.2v74.2
	c0,16.8,11.4,25.7,29.3,25.7h11.1v-92.8c0-24.5,9.9-34.4,27.8-34.4c10.5,0,17.4,2.4,23.4,4.8H1109.5z M1204.1,425.2v-8.7h-10.8
	c-18.9,0-27.2-5.1-27.2-21.3V259.3c0-15.3-8.7-26.9-28.7-26.9H1126v166.8c0,32.6,18,50.3,51.2,50.3
	C1194.9,449.4,1204.1,442.5,1204.1,425.2z M1263.1,251.2c0-12.9-10.8-23.4-23.6-23.4c-12.9,0-23.3,10.5-23.3,23.4
	c0,12.9,10.5,23.7,23.3,23.7C1252.4,274.9,1263.1,264.1,1263.1,251.2z M1291.9,425.2v-8.7h-7.5c-17.7,0-24.5-5.1-24.5-21.3v-75.4
	c0-20.4-10.8-29.9-28.7-29.9h-11.4c0,0,0,100,0,109.3c0,32.6,17.1,50.3,48.2,50.3C1285,449.4,1291.9,442.5,1291.9,425.2z
	 M1449.1,447.9v-94c0-45.8-31.4-71.3-69.4-71.3c-50.3,0-72.7,35-72.7,69.2v69.8c0,15,11.1,26.3,28.1,26.3h12v-93.4
	c0-23.1,12-36.2,29.3-36.2c20.7,0,32.6,12,32.6,39.2v64.1c0,15,11.4,26.3,29.3,26.3H1449.1z M1621.8,380.8v-27.5
	c0-41.3-25.7-70.7-65.8-70.7c-52.1,0-82,36.8-82,82.3c0,38,27.8,65.3,67,65.3c23,0,38.3-12.3,41.6-24v3.9c0,1.5,0.3,5.7,0.3,8.1
	c0.3,2.7,0.3,6,0.3,8.4c0,23.4-13.2,37.1-42.2,37.1c-23,0-41.6-7.2-51.2-17.4h-1.8v18.3c0,19.2,22.7,35.3,56,35.3
	c52.1,0,79-36.2,79-76.6c0-5.4-0.3-14.1-0.6-20.7C1622.1,395.5,1621.8,386.2,1621.8,380.8z M1551.5,318.3
	c17.7,0,30.2,12.3,30.2,37.4c0,25.7-14.4,40.7-34.4,40.7c-19.2,0-32-15.6-32-36.5C1515.3,335.6,1530.8,318.3,1551.5,318.3
	L1551.5,318.3z"/>
</svg>
